<svg width="38" height="25" viewBox="0 0 38 25" fill="none" xmlns="http://www.w3.org/2000/svg">
<path fill-rule="evenodd" clip-rule="evenodd" d="M5 2H32.5C32.8179 2 33.1243 2.04945 33.4118 2.14108L19.7126 11.7305C19.3751 11.9668 18.9272 11.9719 18.5844 11.7433L4.15182 2.12158C4.42077 2.04246 4.70543 2 5 2ZM2.2118 0.848967C0.877665 1.74686 0 3.27093 0 5V20C0 22.7614 2.23858 25 5 25H32.5C35.2614 25 37.5 22.7614 37.5 20V5C37.5 2.23858 35.2614 0 32.5 0H5C3.97433 0 3.02079 0.30883 2.2273 0.838575L2.22137 0.834616L2.2118 0.848967ZM2.46244 3.39903L17.475 13.4074C18.5034 14.093 19.847 14.0778 20.8595 13.369L35.0572 3.43059C35.338 3.88716 35.5 4.42467 35.5 5V20C35.5 21.6569 34.1569 23 32.5 23H5C3.34315 23 2 21.6569 2 20V5C2 4.41136 2.16953 3.86231 2.46244 3.39903Z" fill="#3B3838"/>
</svg>
