<svg width="25" height="25" viewBox="0 0 25 25" fill="none" xmlns="http://www.w3.org/2000/svg">
<path fill-rule="evenodd" clip-rule="evenodd" d="M17 2H8C4.68629 2 2 4.68629 2 8V17C2 20.3137 4.68629 23 8 23H17C20.3137 23 23 20.3137 23 17V8C23 4.68629 20.3137 2 17 2ZM8 0C3.58172 0 0 3.58172 0 8V17C0 21.4183 3.58172 25 8 25H17C21.4183 25 25 21.4183 25 17V8C25 3.58172 21.4183 0 17 0H8ZM12.5 7.66667C9.83062 7.66667 7.66667 9.83062 7.66667 12.5C7.66667 15.1694 9.83062 17.3333 12.5 17.3333C15.1694 17.3333 17.3333 15.1694 17.3333 12.5C17.3333 9.83062 15.1694 7.66667 12.5 7.66667ZM5.66667 12.5C5.66667 8.72605 8.72605 5.66667 12.5 5.66667C16.2739 5.66667 19.3333 8.72605 19.3333 12.5C19.3333 16.2739 16.2739 19.3333 12.5 19.3333C8.72605 19.3333 5.66667 16.2739 5.66667 12.5ZM19.5833 6.66667C20.2737 6.66667 20.8333 6.10702 20.8333 5.41667C20.8333 4.72631 20.2737 4.16667 19.5833 4.16667C18.893 4.16667 18.3333 4.72631 18.3333 5.41667C18.3333 6.10702 18.893 6.66667 19.5833 6.66667Z" fill="#3B3838"/>
</svg>
